<svg width="24" height="24" viewBox="0 0 24 24" fill="none" xmlns="http://www.w3.org/2000/svg">
<path d="M15 24V0L4.5 7.5H0V16.5H4.5L15 24Z" fill="black"/>
<path d="M16.5 20.865C20.7555 20.1495 24 16.458 24 12C24 7.54201 20.7555 3.85051 16.5 3.13501V4.65151C19.9185 5.34901 22.5 8.37751 22.5 12C22.5 15.6225 19.9185 18.651 16.5 19.3485V20.865Z" fill="black"/>
<path d="M16.5 14.583V16.224C18.2445 15.6045 19.5 13.956 19.5 12C19.5 10.044 18.2445 8.3955 16.5 7.776V9.417C17.3925 9.9375 18 10.8945 18 12C18 13.1055 17.3925 14.0625 16.5 14.583Z" fill="black"/>
</svg>
