<?xml version="1.0" encoding="UTF-8"?>
<svg width="234px" height="30px" viewBox="0 0 234 30" version="1.1" xmlns="http://www.w3.org/2000/svg" xmlns:xlink="http://www.w3.org/1999/xlink">
    <title>logo_nobocoto</title>
    <g id="Symbols" stroke="none" stroke-width="1" fill="none" fill-rule="evenodd">
        <g id="nav" transform="translate(-13.000000, -24.000000)" fill="#FFFFFF" fill-rule="nonzero">
            <g id="Group-21" transform="translate(-7.000000, 0.000000)">
                <g id="logo_nobocoto" transform="translate(20.000000, 24.000000)">
                    <polygon id="Path" points="22.3646934 12.7513496 22.2871776 12.6738338 23.0623356 11.8986758 26.4218152 8.53919623 27.5416417 7.42075393 22.5806303 2.45974254 18.1027084 6.93766438 18.1027084 6.93766438 17.482582 7.5577908 17.4050662 7.480275 18.1027084 6.62898537 18.1027084 0.604900106 11.0861441 0.604900106 11.0861441 8.99321737 11.0861441 12.7762654 10.8674387 12.7762654 10.4286439 8.33571725 10.4286439 8.33571725 4.9610114 2.8667005 5.00487085e-14 7.8277119 11.0861441 18.9138559 22.1736723 30 27.1346837 25.0403728 21.665667 19.5713561 21.665667 19.5713561 17.2251188 19.1325613 17.2251188 18.9138559 21.0081668 18.9138559 29.3964841 18.9138559 29.3964841 11.8986758 23.3723988 11.8986758"></polygon>
                    <path d="M230.57214,1.62091081 L229.297282,1.62091081 L229.297282,2.43897938 L230.57214,2.43897938 C230.911272,2.43897938 231.157662,2.34623725 231.157662,2.02371614 C231.157662,1.70119504 230.911272,1.62091081 230.57214,1.62091081 Z" id="Path"></path>
                    <path d="M230.145804,0.00276842154 C228.236977,0.00276842154 227.000877,1.03677387 227.000877,2.59262677 C227.000877,4.14847968 228.236977,5.18110091 230.145804,5.18110091 C232.05463,5.18110091 233.283809,4.14709546 233.283809,2.59262677 C233.283809,1.03815808 232.044941,0.00276842154 230.145804,0.00276842154 Z M231.123056,4.15540073 L230.263461,3.12693213 L229.304203,3.12693213 L229.304203,4.15540073 L228.360172,4.15540073 L228.360172,0.906658054 L230.644119,0.906658054 C231.474646,0.906658054 232.123841,1.27347391 232.123841,2.01402667 C232.123841,2.5580215 231.779172,2.90268998 231.267014,3.05080054 L232.226272,4.15816915 L231.123056,4.15540073 Z" id="Shape"></path>
                    <polygon id="Path" points="51.1631984 11.7990126 40.3082176 0.604900106 34.6578692 0.604900106 34.6578692 18.9138559 39.8099017 18.9138559 39.8099017 6.88229594 51.6338301 18.9138559 56.3152309 18.9138559 56.3152309 0.604900106 51.1631984 0.604900106"></polygon>
                    <path d="M71.000323,0.00276842154 C63.7539796,0.00276842154 59.0725788,3.5601901 59.0725788,9.75868592 C59.0725788,15.9571817 63.7539796,19.5159876 71.000323,19.5159876 C78.2466664,19.5159876 82.952983,15.958566 82.952983,9.75868592 C82.952983,3.55880589 78.2452821,0.00276842154 71.000323,0.00276842154 Z M71.000323,15.1737185 C66.9722696,15.1737185 64.4862271,13.2122918 64.4862271,9.75868592 C64.4862271,6.30508005 66.9971854,4.3450376 71.000323,4.3450376 C75.0283763,4.3450376 77.5130347,6.30646426 77.5130347,9.75868592 C77.5130347,13.2109076 75.0283763,15.1737185 71.000323,15.1737185 Z" id="Shape"></path>
                    <path d="M120.595211,0.00276842154 C113.348867,0.00276842154 108.667466,3.5601901 108.667466,9.75868592 C108.667466,15.9571817 113.348867,19.5159876 120.595211,19.5159876 C127.841554,19.5159876 132.549255,15.958566 132.549255,9.75868592 C132.549255,3.55880589 127.84017,0.00276842154 120.595211,0.00276842154 Z M120.595211,15.1737185 C116.567157,15.1737185 114.08942,13.2122918 114.08942,9.75868592 C114.08942,6.30508005 116.600378,4.3450376 120.595211,4.3450376 C124.623264,4.3450376 127.101001,6.30646426 127.101001,9.75868592 C127.101001,13.2109076 124.623264,15.1737185 120.595211,15.1737185 Z" id="Shape"></path>
                    <path d="M145.974715,15.1737185 C142.208278,15.1737185 139.697319,13.2635076 139.697319,9.75868592 C139.697319,6.25386426 142.208278,4.3450376 145.974715,4.3450376 C148.433073,4.3450376 150.290684,5.23370092 151.493563,7.11345914 L156.097448,4.76030084 C154.450238,2.14552669 150.787616,-3.61462894e-14 146.053615,-3.61462894e-14 C138.938772,-3.61462894e-14 134.287824,3.58372168 134.287824,9.7559175 C134.287824,15.9281133 138.944309,19.5132192 145.850136,19.5132192 C150.793153,19.5132192 154.48069,17.4202925 156.181885,14.7266184 L151.6043,12.3734601 C150.316984,14.3335025 148.433073,15.1737185 145.974715,15.1737185 Z" id="Path"></path>
                    <path d="M169.005214,0.00276842154 C161.760255,0.00276842154 157.078854,3.5601901 157.078854,9.75868592 C157.078854,15.9571817 161.760255,19.5159876 169.005214,19.5159876 C176.250173,19.5159876 180.959258,15.958566 180.959258,9.75868592 C180.959258,3.55880589 176.251557,0.00276842154 169.005214,0.00276842154 Z M169.005214,15.1737185 C164.977161,15.1737185 162.499423,13.2122918 162.499423,9.75868592 C162.499423,6.30508005 165.010382,4.3450376 169.005214,4.3450376 C173.034651,4.3450376 175.51931,6.30646426 175.51931,9.75868592 C175.51931,13.2109076 173.034651,15.1737185 169.005214,15.1737185 Z" id="Shape"></path>
                    <polygon id="Path" points="181.799474 4.86826928 189.358649 4.86826928 189.358649 18.9138559 194.694782 18.9138559 194.694782 4.86826928 202.306557 4.86826928 202.306557 0.604900106 181.799474 0.604900106"></polygon>
                    <path d="M215.046832,0.00276842154 C207.800489,0.00276842154 203.119088,3.5601901 203.119088,9.75868592 C203.119088,15.9571817 207.800489,19.5159876 215.046832,19.5159876 C222.293176,19.5159876 227.000877,15.958566 227.000877,9.75868592 C227.000877,3.55880589 222.291792,0.00276842154 215.046832,0.00276842154 Z M215.046832,15.1737185 C211.018779,15.1737185 208.534121,13.2122918 208.534121,9.75868592 C208.534121,6.30508005 211.045079,4.3450376 215.046832,4.3450376 C219.074886,4.3450376 221.552623,6.30646426 221.552623,9.75868592 C221.552623,13.2109076 219.072117,15.1737185 215.046832,15.1737185 Z" id="Shape"></path>
                    <path d="M101.97896,9.36695427 C104.726618,9.21192267 106.164813,7.41244867 106.164813,5.33613252 C106.164813,2.40575832 103.313339,0.602131685 98.8146542,0.602131685 L85.7103308,0.602131685 L85.7103308,18.9138559 L99.8611175,18.9138559 C104.359803,18.9138559 107.211277,17.0576293 107.211277,13.8919393 C107.211277,11.0667651 104.856734,9.5496701 101.97896,9.36695427 Z M90.9938633,4.3187376 L97.9246067,4.3187376 C99.7033175,4.3187376 100.881281,4.71046925 100.881281,6.09744844 C100.881281,7.50934342 99.7033175,7.89692244 97.9246067,7.89692244 L90.9938633,7.89692244 L90.9938633,4.3187376 Z M98.7357542,15.2000185 L90.9938633,15.2000185 L90.9938633,11.3546809 L98.7357542,11.3546809 C100.619665,11.3546809 101.743644,11.7699442 101.743644,13.2635076 C101.743644,14.757071 100.619665,15.2000185 98.7357542,15.2000185 Z" id="Shape"></path>
                </g>
            </g>
        </g>
    </g>
</svg>