<svg width="148" height="30" viewBox="0 0 148 30" fill="none" xmlns="http://www.w3.org/2000/svg">
<g clip-path="url(#clip0_96_34)">
<path d="M22.3647 12.7513L22.2872 12.6738L23.0623 11.8986L26.4218 8.53915L27.5416 7.42071L22.5806 2.4597L18.1027 6.93762L17.4826 7.55775L17.4051 7.48023L18.1027 6.62894V0.604858H11.0861V8.99318V12.7762H10.8674L10.4286 8.33568L4.96101 2.86666L0 7.82767L11.0861 18.9138L22.1737 30L27.1347 25.0403L21.6657 19.5713L17.2251 19.1325V18.9138H21.0082H29.3965V11.8986H23.3724L22.3647 12.7513Z" fill="black"/>
<path d="M51.656 9.3275C54.571 9.513 56.956 11.05 56.956 13.912C56.956 17.1185 54.0675 19 49.5095 19H35.173V0.449999H48.4495C53.0075 0.449999 55.896 2.2785 55.896 5.2465C55.896 7.34 54.4385 9.1685 51.656 9.3275ZM40.526 4.213V7.8435H47.5485C49.3505 7.8435 50.543 7.446 50.543 6.015C50.543 4.6105 49.3505 4.213 47.5485 4.213H40.526ZM48.37 15.237C50.278 15.237 51.4175 14.7865 51.4175 13.276C51.4175 11.7655 50.278 11.3415 48.37 11.3415H40.526V15.237H48.37ZM65.4726 14.866H79.9416V19H60.1461V0.449999H79.6501V4.584H65.4726V7.6315H77.1591V11.58H65.4726V14.866ZM100.27 19L98.5213 15.449H88.3453L86.5963 19H80.9252L90.5183 0.449999H96.4278L106.021 19H100.27ZM90.2003 11.6065H96.6398L93.4333 5.0345L90.2003 11.6065ZM124.202 0.449999V4.7695H116.491V19H111.085V4.7695H103.426V0.449999H124.202ZM136.544 7.234C142.612 7.7375 146.905 8.93 146.905 13.1965C146.905 17.0125 143.381 19.6095 136.65 19.6095C131.88 19.6095 127.878 18.311 124.963 15.979L127.799 12.64C129.998 14.495 133.046 15.5285 136.756 15.5285C139.936 15.5285 141.526 14.9455 141.526 13.7265C141.526 12.534 140.042 12.1365 136.226 11.8185C130.714 11.3415 125.705 10.1225 125.705 5.9885C125.705 2.0135 129.998 -0.159501 135.881 -0.159501C139.856 -0.159501 143.513 0.794499 146.057 2.5965L143.328 5.962C141.261 4.5045 138.77 3.9215 135.881 3.895C133.708 3.895 131.085 4.2395 131.085 5.5645C131.085 6.81 133.231 6.969 136.544 7.234Z" fill="black"/>
</g>
<defs>
<clipPath id="clip0_96_34">
<rect width="148" height="30" fill="white"/>
</clipPath>
</defs>
</svg>
