<?xml version="1.0" encoding="UTF-8"?>
<svg width="97px" height="98px" viewBox="0 0 97 98" version="1.1" xmlns="http://www.w3.org/2000/svg" xmlns:xlink="http://www.w3.org/1999/xlink">
    <title>sygnet-orange</title>
    <g id="Symbols" stroke="none" stroke-width="1" fill="none" fill-rule="evenodd">
        <g id="footer" transform="translate(-1335.000000, -20.000000)" fill="#FF3D00" fill-rule="nonzero">
            <polygon id="sygnet-orange" points="1408.87046 60.4949143 1408.61548 60.2364852 1411.1652 57.6521944 1422.21547 46.4520625 1425.8989 42.7233001 1409.58073 26.1838388 1394.85158 41.1127331 1394.85158 41.1127331 1392.81181 43.1801658 1392.55684 42.9217367 1394.85158 40.0836316 1394.85158 20 1371.77212 20 1371.77212 47.9657186 1371.77212 60.5779808 1371.05274 60.5779808 1369.60942 45.7736862 1369.60942 45.7736862 1351.62483 27.5405914 1335.30667 44.0800527 1371.77212 81.0400264 1408.24213 118 1424.5603 101.465154 1406.57116 83.2320588 1406.57116 83.2320588 1391.96494 81.7691656 1391.96494 81.0400264 1404.40846 81.0400264 1432 81.0400264 1432 57.6521944 1412.18508 57.6521944"></polygon>
        </g>
    </g>
</svg>